# File created by Blade
# Date/Time:  Tue Apr 07 20:13:55 2015
# Frame Rate: 120.000 fps
#------------------------------------------------------
:FULLY-SPECIFIED
:DEGREES
3837
root 1.458119 34.903409 -11.033640 6.046728 3.101437 -50.583408
Spine -1.077497 -12.629682 42.363691
Head 1.531072 -22.206987 34.173431
LeftShoulder 6.199642 21.249181 39.010706
LeftArm 101.778213 13.723081 -45.658536
LeftForeArm -11.028196 0.000000 61.581080
LeftHand 15.561069 -0.000000 4.387881
LeftHandThumb1 -26.253704 0.000000 33.147579
RightShoulder 2.511611 13.925802 -11.500968
RightArm 14.385920 44.902408 81.476673
RightForeArm 45.066713 -0.000000 61.297093
RightHand 7.143698 -0.000000 -12.851424
RightHandThumb1 -24.326973 -0.000000 -32.862282
LeftUpLeg -16.341837 5.017528 45.751966
LeftLeg 20.427440 -0.000000 -0.000000
LeftFoot -9.927653 8.871133 -16.418676
LeftToeBase -6.226508 -0.000000 0.000000
RightUpLeg -64.722093 -37.887121 -50.606527
RightLeg 71.271430 -0.000000 -0.000000
RightFoot 42.689231 1.101148 -8.118758
RightToeBase 36.965853 -0.000000 -0.000000
3838
root 1.460807 34.908772 -11.055891 6.240625 2.948502 -50.577592
Spine -0.944394 -12.534945 42.180020
Head 1.450763 -22.170638 34.385777
LeftShoulder 6.191791 21.372435 38.824764
LeftArm 101.783426 13.883117 -45.591249
LeftForeArm -10.951605 0.000000 62.006172
LeftHand 15.699806 -0.000000 4.916218
LeftHandThumb1 -26.253704 0.000000 33.147579
RightShoulder 2.529354 13.788943 -11.570999
RightArm 14.337659 44.831712 81.331786
RightForeArm 45.466325 -0.000000 61.384567
RightHand 7.245529 0.000000 -13.011116
RightHandThumb1 -24.326973 -0.000000 -32.862282
LeftUpLeg -16.482572 5.456844 45.784547
LeftLeg 20.611021 -0.000000 -0.000000
LeftFoot -9.890404 8.350250 -16.976118
LeftToeBase -5.860612 -0.000000 0.000000
RightUpLeg -64.919381 -38.150382 -50.513927
RightLeg 71.091221 -0.000000 -0.000000
RightFoot 42.666314 1.012480 -8.025568
RightToeBase 37.016513 -0.000000 -0.000000
3839
root 1.464770 34.911527 -11.072207 6.390828 2.781698 -50.571965
Spine -0.801387 -12.441718 42.002743
Head 1.416007 -22.076326 34.532006
LeftShoulder 6.171591 21.475360 38.631968
LeftArm 101.768683 14.070562 -45.597689
LeftForeArm -10.826602 -0.000000 62.397770
LeftHand 15.769874 -0.000000 5.061295
LeftHandThumb1 -26.253704 0.000000 33.147579
RightShoulder 2.552793 13.615038 -11.640244
RightArm 14.302717 44.817498 81.211582
RightForeArm 45.882953 -0.000000 61.462776
RightHand 7.061171 -0.000000 -12.769790
RightHandThumb1 -24.326973 -0.000000 -32.862282
LeftUpLeg -16.536595 5.873390 45.804240
LeftLeg 20.727568 -0.000000 -0.000000
LeftFoot -9.854221 7.886822 -17.403586
LeftToeBase -5.608442 -0.000000 0.000000
RightUpLeg -65.006287 -38.233896 -50.571496
RightLeg 70.943583 -0.000000 -0.000000
RightFoot 42.684269 0.802515 -7.740335
RightToeBase 36.885435 -0.000000 -0.000000
3840
root 1.468549 34.913034 -11.087540 6.566229 2.603515 -50.599355
Spine -0.690727 -12.321574 41.883206
Head 1.403634 -21.956858 34.578881
LeftShoulder 6.127143 21.666268 38.423982
LeftArm 101.782761 14.222649 -45.673391
LeftForeArm -10.597547 -0.000000 62.858011
LeftHand 15.649420 0.000000 4.998936
LeftHandThumb1 -26.253704 0.000000 33.147579
RightShoulder 2.551791 13.429466 -11.735273
RightArm 14.358801 44.761905 81.152282
RightForeArm 46.229092 -0.000000 61.496867
RightHand 7.257257 -0.000000 -12.914509
RightHandThumb1 -24.326973 -0.000000 -32.862282
LeftUpLeg -16.556002 6.303879 45.841536
LeftLeg 20.761729 -0.000000 -0.000000
LeftFoot -9.759319 7.428789 -17.912465
LeftToeBase -5.707608 -0.000000 0.000000
RightUpLeg -65.196386 -38.497518 -50.420210
RightLeg 70.777716 -0.000000 -0.000000
RightFoot 42.679006 0.756999 -7.697274
RightToeBase 36.893865 -0.000000 -0.000000
3841
root 1.474215 34.912660 -11.097880 6.712251 2.461030 -50.651889
Spine -0.619488 -12.273383 41.831080
Head 1.477198 -21.799641 34.482035
LeftShoulder 6.073000 21.859073 38.222407
LeftArm 101.774265 14.465576 -45.903155
LeftForeArm -10.367542 -0.000000 63.261097
LeftHand 15.633918 -0.000000 4.765692
LeftHandThumb1 -26.253704 0.000000 33.147579
RightShoulder 2.585985 13.322221 -11.841273
RightArm 14.375477 44.810770 81.127135
RightForeArm 46.475716 0.000000 61.542942
RightHand 7.168363 0.000000 -12.934934
RightHandThumb1 -24.326973 -0.000000 -32.862282
LeftUpLeg -16.532320 6.629022 45.892156
LeftLeg 20.728633 -0.000000 -0.000000
LeftFoot -9.782609 7.171113 -18.160855
LeftToeBase -5.516246 -0.000000 0.000000
RightUpLeg -65.240460 -38.660009 -50.374812
RightLeg 70.621022 -0.000000 -0.000000
RightFoot 42.714080 0.743364 -7.620847
RightToeBase 36.812375 -0.000000 -0.000000
